# xmcd
#
# Track frame offsets:
#	150
#	14276
#	25799
#	39831
#	51501
#	67563
#	80651
#	96317
#	114857
#	127923
#	143521
#	161811
#	174625
#	193902
#	210955
#	226635
#	238161
#	250173
#	263902
#	274821
#	288526
#	302290
#	315064
#
# Disc length: 4457 seconds
#
# Revision: 0
# Processed by: cddbd v1.5.2PL0 Copyright (c) Steve Scherf et al.
# Submitted via: EasyCDDAExtractor 4.6.0.1
#
DISCID=28116717
DTITLE=VA  - Rose Valley CD 28
DYEAR=1900
DGENRE=Country
TTITLE0=Dwight Yoakam - Stop The World
TTITLE1=Ricky Lynn Gregg - Three Nickels And A Dime
TTITLE2=Kenny Chesney - No Shirt. No Shoes, No Problems
TTITLE3=Crystal Gayle - Never Ending Song Of Love
TTITLE4=Dean Brothers - Bring It On
TTITLE5=Marty Stuart - Back To The Country
TTITLE6=Michael Peterson - Stomp
TTITLE7=Bellamy Brothers - After Glow
TTITLE8=Brendon Walmsley - Speak To The Sky
TTITLE9=Dwight Yoakam - Fair To Midland
TTITLE10=Jimmy Buffet - Sea Of A Heartbreak
TTITLE11=Trisha Yearwood - XXX's And OOO's
TTITLE12=Rednex - Cotton Eyed Joe
TTITLE13=David Civera - Chocolate Y Caramelo
TTITLE14=Boots Band - Sugar And Pie
TTITLE15=George Strait - Good Time Charlie's
TTITLE16=Ove Stoylen - Tonight's The Night
TTITLE17=Trisha Yearwood - I Wanna Go Far
TTITLE18=Dwight Yoakam - Playboy
TTITLE19=Elvis Presley - Such A Night
TTITLE20=Joni Harms - We Work It Out
TTITLE21=Brad Paisley ? - Cotton Eyed Joe
TTITLE22=Bellamy Brothers - Diesel Cafe
EXTD=
EXTT0=
EXTT1=
EXTT2=
EXTT3=
EXTT4=
EXTT5=
EXTT6=
EXTT7=
EXTT8=
EXTT9=
EXTT10=
EXTT11=
EXTT12=
EXTT13=
EXTT14=
EXTT15=
EXTT16=
EXTT17=
EXTT18=
EXTT19=
EXTT20=
EXTT21=
EXTT22=
PLAYORDER=
